<svg width="900" height="900" viewBox="0 0 900 900" fill="none" xmlns="http://www.w3.org/2000/svg">
<g clip-path="url(#clip0_53_87)">
<rect width="900" height="900" fill="white"/>
<rect x="-269" y="-55" width="1440" height="1024" fill="#2A183D"/>
<g clip-path="url(#clip1_53_87)">
<path d="M380 997L624.256 676.801C624.256 676.801 707.351 574.066 615.207 499.084C525.412 426.007 450.675 511.649 450.675 511.649L299.239 695.338C299.239 695.338 233.15 772.901 157.433 706.173C81.7165 639.445 149.788 555.796 149.788 555.796L646.265 -27.5762" stroke="url(#paint0_linear_53_87)" stroke-opacity="0.8" stroke-width="84" stroke-miterlimit="10"/>
<path d="M374.52 417.12C370.093 417.12 365.987 416.427 362.2 415.04C358.467 413.6 355.213 411.573 352.44 408.96C349.72 406.347 347.587 403.28 346.04 399.76C344.493 396.187 343.72 392.267 343.72 388C343.72 383.733 344.493 379.84 346.04 376.32C347.587 372.747 349.72 369.653 352.44 367.04C355.213 364.427 358.467 362.427 362.2 361.04C365.987 359.6 370.093 358.88 374.52 358.88C379.693 358.88 384.307 359.787 388.36 361.6C392.467 363.413 395.88 366.027 398.6 369.44L388.52 378.56C386.707 376.427 384.707 374.8 382.52 373.68C380.387 372.56 377.987 372 375.32 372C373.027 372 370.92 372.373 369 373.12C367.08 373.867 365.427 374.96 364.04 376.4C362.707 377.787 361.64 379.467 360.84 381.44C360.093 383.413 359.72 385.6 359.72 388C359.72 390.4 360.093 392.587 360.84 394.56C361.64 396.533 362.707 398.24 364.04 399.68C365.427 401.067 367.08 402.133 369 402.88C370.92 403.627 373.027 404 375.32 404C377.987 404 380.387 403.44 382.52 402.32C384.707 401.2 386.707 399.573 388.52 397.44L398.6 406.56C395.88 409.92 392.467 412.533 388.36 414.4C384.307 416.213 379.693 417.12 374.52 417.12ZM432.731 417.12C428.251 417.12 424.117 416.4 420.331 414.96C416.544 413.52 413.237 411.493 410.411 408.88C407.637 406.213 405.477 403.12 403.931 399.6C402.384 396.08 401.611 392.213 401.611 388C401.611 383.787 402.384 379.92 403.931 376.4C405.477 372.88 407.637 369.813 410.411 367.2C413.237 364.533 416.544 362.48 420.331 361.04C424.117 359.6 428.251 358.88 432.731 358.88C437.264 358.88 441.397 359.6 445.131 361.04C448.917 362.48 452.197 364.533 454.971 367.2C457.744 369.813 459.904 372.88 461.451 376.4C463.051 379.92 463.851 383.787 463.851 388C463.851 392.213 463.051 396.107 461.451 399.68C459.904 403.2 457.744 406.267 454.971 408.88C452.197 411.493 448.917 413.52 445.131 414.96C441.397 416.4 437.264 417.12 432.731 417.12ZM432.731 404C434.864 404 436.837 403.627 438.651 402.88C440.517 402.133 442.117 401.067 443.451 399.68C444.837 398.24 445.904 396.533 446.651 394.56C447.451 392.587 447.851 390.4 447.851 388C447.851 385.547 447.451 383.36 446.651 381.44C445.904 379.467 444.837 377.787 443.451 376.4C442.117 374.96 440.517 373.867 438.651 373.12C436.837 372.373 434.864 372 432.731 372C430.597 372 428.597 372.373 426.731 373.12C424.917 373.867 423.317 374.96 421.931 376.4C420.597 377.787 419.531 379.467 418.731 381.44C417.984 383.36 417.611 385.547 417.611 388C417.611 390.4 417.984 392.587 418.731 394.56C419.531 396.533 420.597 398.24 421.931 399.68C423.317 401.067 424.917 402.133 426.731 402.88C428.597 403.627 430.597 404 432.731 404ZM472.147 416V360H498.627C504.814 360 510.254 361.147 514.947 363.44C519.64 365.733 523.294 368.96 525.907 373.12C528.574 377.28 529.907 382.24 529.907 388C529.907 393.707 528.574 398.667 525.907 402.88C523.294 407.04 519.64 410.267 514.947 412.56C510.254 414.853 504.814 416 498.627 416H472.147ZM487.987 403.36H497.987C501.187 403.36 503.96 402.773 506.307 401.6C508.707 400.373 510.574 398.613 511.907 396.32C513.24 393.973 513.907 391.2 513.907 388C513.907 384.747 513.24 381.973 511.907 379.68C510.574 377.387 508.707 375.653 506.307 374.48C503.96 373.253 501.187 372.64 497.987 372.64H487.987V403.36ZM552.801 381.68H578.801V393.52H552.801V381.68ZM553.921 403.76H583.201V416H538.241V360H582.161V372.24H553.921V403.76ZM374.52 503.12C370.093 503.12 365.987 502.427 362.2 501.04C358.467 499.6 355.213 497.573 352.44 494.96C349.72 492.347 347.587 489.28 346.04 485.76C344.493 482.187 343.72 478.267 343.72 474C343.72 469.733 344.493 465.84 346.04 462.32C347.587 458.747 349.72 455.653 352.44 453.04C355.213 450.427 358.467 448.427 362.2 447.04C365.987 445.6 370.093 444.88 374.52 444.88C379.693 444.88 384.307 445.787 388.36 447.6C392.467 449.413 395.88 452.027 398.6 455.44L388.52 464.56C386.707 462.427 384.707 460.8 382.52 459.68C380.387 458.56 377.987 458 375.32 458C373.027 458 370.92 458.373 369 459.12C367.08 459.867 365.427 460.96 364.04 462.4C362.707 463.787 361.64 465.467 360.84 467.44C360.093 469.413 359.72 471.6 359.72 474C359.72 476.4 360.093 478.587 360.84 480.56C361.64 482.533 362.707 484.24 364.04 485.68C365.427 487.067 367.08 488.133 369 488.88C370.92 489.627 373.027 490 375.32 490C377.987 490 380.387 489.44 382.52 488.32C384.707 487.2 386.707 485.573 388.52 483.44L398.6 492.56C395.88 495.92 392.467 498.533 388.36 500.4C384.307 502.213 379.693 503.12 374.52 503.12ZM432.731 503.12C428.251 503.12 424.117 502.4 420.331 500.96C416.544 499.52 413.237 497.493 410.411 494.88C407.637 492.213 405.477 489.12 403.931 485.6C402.384 482.08 401.611 478.213 401.611 474C401.611 469.787 402.384 465.92 403.931 462.4C405.477 458.88 407.637 455.813 410.411 453.2C413.237 450.533 416.544 448.48 420.331 447.04C424.117 445.6 428.251 444.88 432.731 444.88C437.264 444.88 441.397 445.6 445.131 447.04C448.917 448.48 452.197 450.533 454.971 453.2C457.744 455.813 459.904 458.88 461.451 462.4C463.051 465.92 463.851 469.787 463.851 474C463.851 478.213 463.051 482.107 461.451 485.68C459.904 489.2 457.744 492.267 454.971 494.88C452.197 497.493 448.917 499.52 445.131 500.96C441.397 502.4 437.264 503.12 432.731 503.12ZM432.731 490C434.864 490 436.837 489.627 438.651 488.88C440.517 488.133 442.117 487.067 443.451 485.68C444.837 484.24 445.904 482.533 446.651 480.56C447.451 478.587 447.851 476.4 447.851 474C447.851 471.547 447.451 469.36 446.651 467.44C445.904 465.467 444.837 463.787 443.451 462.4C442.117 460.96 440.517 459.867 438.651 459.12C436.837 458.373 434.864 458 432.731 458C430.597 458 428.597 458.373 426.731 459.12C424.917 459.867 423.317 460.96 421.931 462.4C420.597 463.787 419.531 465.467 418.731 467.44C417.984 469.36 417.611 471.547 417.611 474C417.611 476.4 417.984 478.587 418.731 480.56C419.531 482.533 420.597 484.24 421.931 485.68C423.317 487.067 424.917 488.133 426.731 488.88C428.597 489.627 430.597 490 432.731 490ZM472.147 502V446H485.187L508.387 484.08H501.507L524.067 446H537.107L537.267 502H522.707L522.547 468.16H525.027L508.147 496.48H501.107L483.747 468.16H486.787V502H472.147ZM548.475 502V446H574.075C579.195 446 583.595 446.827 587.275 448.48C591.008 450.133 593.888 452.533 595.915 455.68C597.942 458.773 598.955 462.453 598.955 466.72C598.955 470.933 597.942 474.587 595.915 477.68C593.888 480.773 591.008 483.173 587.275 484.88C583.595 486.533 579.195 487.36 574.075 487.36H557.275L564.315 480.48V502H548.475ZM564.315 482.16L557.275 474.88H573.115C576.422 474.88 578.875 474.16 580.475 472.72C582.128 471.28 582.955 469.28 582.955 466.72C582.955 464.107 582.128 462.08 580.475 460.64C578.875 459.2 576.422 458.48 573.115 458.48H557.275L564.315 451.2V482.16ZM597.146 502L621.866 446H637.466L662.266 502H645.786L626.426 453.76H632.666L613.306 502H597.146ZM610.666 491.12L614.746 479.44H642.106L646.186 491.12H610.666ZM686.436 503.12C681.85 503.12 677.423 502.56 673.156 501.44C668.943 500.267 665.503 498.773 662.836 496.96L668.036 485.28C670.543 486.88 673.423 488.213 676.676 489.28C679.983 490.293 683.263 490.8 686.516 490.8C688.703 490.8 690.463 490.613 691.796 490.24C693.13 489.813 694.09 489.28 694.676 488.64C695.316 487.947 695.636 487.147 695.636 486.24C695.636 484.96 695.05 483.947 693.876 483.2C692.703 482.453 691.183 481.84 689.316 481.36C687.45 480.88 685.37 480.4 683.076 479.92C680.836 479.44 678.57 478.827 676.276 478.08C674.036 477.333 671.983 476.373 670.116 475.2C668.25 473.973 666.73 472.4 665.556 470.48C664.383 468.507 663.796 466.027 663.796 463.04C663.796 459.68 664.703 456.64 666.516 453.92C668.383 451.2 671.156 449.013 674.836 447.36C678.516 445.707 683.103 444.88 688.596 444.88C692.276 444.88 695.876 445.307 699.396 446.16C702.97 446.96 706.143 448.16 708.916 449.76L704.036 461.52C701.37 460.08 698.73 459.013 696.116 458.32C693.503 457.573 690.97 457.2 688.516 457.2C686.33 457.2 684.57 457.44 683.236 457.92C681.903 458.347 680.943 458.933 680.356 459.68C679.77 460.427 679.476 461.28 679.476 462.24C679.476 463.467 680.036 464.453 681.156 465.2C682.33 465.893 683.85 466.48 685.716 466.96C687.636 467.387 689.716 467.84 691.956 468.32C694.25 468.8 696.516 469.413 698.756 470.16C701.05 470.853 703.13 471.813 704.996 473.04C706.863 474.213 708.356 475.787 709.476 477.76C710.65 479.68 711.236 482.107 711.236 485.04C711.236 488.293 710.303 491.307 708.436 494.08C706.623 496.8 703.876 498.987 700.196 500.64C696.57 502.293 691.983 503.12 686.436 503.12ZM738.233 503.12C733.646 503.12 729.22 502.56 724.953 501.44C720.74 500.267 717.3 498.773 714.633 496.96L719.833 485.28C722.34 486.88 725.22 488.213 728.473 489.28C731.78 490.293 735.06 490.8 738.313 490.8C740.5 490.8 742.26 490.613 743.593 490.24C744.926 489.813 745.886 489.28 746.473 488.64C747.113 487.947 747.433 487.147 747.433 486.24C747.433 484.96 746.846 483.947 745.673 483.2C744.5 482.453 742.98 481.84 741.113 481.36C739.246 480.88 737.166 480.4 734.873 479.92C732.633 479.44 730.366 478.827 728.073 478.08C725.833 477.333 723.78 476.373 721.913 475.2C720.046 473.973 718.526 472.4 717.353 470.48C716.18 468.507 715.593 466.027 715.593 463.04C715.593 459.68 716.5 456.64 718.313 453.92C720.18 451.2 722.953 449.013 726.633 447.36C730.313 445.707 734.9 444.88 740.393 444.88C744.073 444.88 747.673 445.307 751.193 446.16C754.766 446.96 757.94 448.16 760.713 449.76L755.833 461.52C753.166 460.08 750.526 459.013 747.913 458.32C745.3 457.573 742.766 457.2 740.313 457.2C738.126 457.2 736.366 457.44 735.033 457.92C733.7 458.347 732.74 458.933 732.153 459.68C731.566 460.427 731.273 461.28 731.273 462.24C731.273 463.467 731.833 464.453 732.953 465.2C734.126 465.893 735.646 466.48 737.513 466.96C739.433 467.387 741.513 467.84 743.753 468.32C746.046 468.8 748.313 469.413 750.553 470.16C752.846 470.853 754.926 471.813 756.793 473.04C758.66 474.213 760.153 475.787 761.273 477.76C762.446 479.68 763.033 482.107 763.033 485.04C763.033 488.293 762.1 491.307 760.233 494.08C758.42 496.8 755.673 498.987 751.993 500.64C748.366 502.293 743.78 503.12 738.233 503.12Z" fill="white"/>
<path d="M-128 -104.756L97.0715 81.5814C97.0715 81.5814 186.34 161.49 112.142 249.21C37.9427 336.907 -59.1137 264.979 -59.1137 264.979L-108.237 234.21C-108.237 234.21 -213.249 154.009 -287.778 250.763C-360.414 345.051 -272.796 417.465 -272.796 417.465L-84.9949 563.771C-84.9949 563.771 -5.66625 627.73 -72.0777 707.446C-138.489 787.163 -223.999 721.441 -223.999 721.441L-563.699 438.392" stroke="url(#paint1_linear_53_87)" stroke-opacity="0.9" stroke-width="84" stroke-miterlimit="10"/>
<path d="M870.933 1012.68L797.465 953.842C797.465 953.842 706.67 875.671 779.407 786.174C852.147 696.701 950.599 766.708 950.599 766.708L998.885 806.605C998.885 806.605 1105.45 884.732 1178.36 786.174C1249.42 690.129 1160.41 619.434 1160.41 619.434L770.214 299.977C770.214 299.977 689.653 237.578 754.736 156.269C819.819 74.9601 906.601 138.994 906.601 138.994L1251.74 415.386" stroke="url(#paint2_linear_53_87)" stroke-opacity="0.82" stroke-width="84" stroke-miterlimit="10"/>
<g clip-path="url(#clip2_53_87)">
<path d="M229.412 424.197C230.957 421.314 234.791 420.63 237.224 422.822L267.494 450.092C269.916 452.274 269.644 456.148 266.947 457.993L240.618 475.936C233.827 474.194 227.223 470.768 221.472 465.587C217.977 462.438 215.095 458.907 212.823 455.147L229.411 424.177L229.412 424.197ZM205.95 467.978C207.984 470.549 210.259 472.983 212.771 475.246C217.254 479.284 222.203 482.517 227.411 484.936L219.846 490.091C215.517 487.628 211.36 484.645 207.464 481.136C205.481 479.348 203.626 477.48 201.9 475.541L205.95 467.978ZM195.429 487.621C196.505 488.702 197.616 489.761 198.763 490.794C201.745 493.481 204.87 495.914 208.108 498.091L196.276 506.155C191.933 509.114 186.519 504.256 189.009 499.608L195.429 487.621Z" fill="white"/>
<path d="M201.959 382.97C224.302 358.169 259.935 352.48 288.282 366.984L271.311 377.342C251.267 371.488 228.699 377.099 213.8 393.637C193.085 416.631 194.92 452.171 217.891 472.866C238.615 491.537 269.569 491.84 290.638 474.836L299.873 487.861C272.82 509.122 233.625 508.512 207.214 484.717C177.666 458.097 175.313 412.546 201.959 382.97Z" fill="white"/>
<path d="M282.229 441.117L322.294 366.319C324.85 361.556 319.297 356.572 314.835 359.599L244.758 407.359C241.982 409.25 241.715 413.226 244.202 415.467L274.213 442.504C276.71 444.754 280.647 444.064 282.228 441.097L282.229 441.117Z" fill="white"/>
</g>
</g>
</g>
<defs>
<linearGradient id="paint0_linear_53_87" x1="805" y1="264.5" x2="331" y2="877" gradientUnits="userSpaceOnUse">
<stop stop-color="#601B13"/>
<stop offset="1" stop-color="#EA5645"/>
</linearGradient>
<linearGradient id="paint1_linear_53_87" x1="-64.9997" y1="873.744" x2="-61.4997" y2="-29.2562" gradientUnits="userSpaceOnUse">
<stop stop-color="#A3D9F7"/>
<stop offset="0.906954" stop-color="#0C689B"/>
</linearGradient>
<linearGradient id="paint2_linear_53_87" x1="817" y1="21.5001" x2="941.5" y2="818.5" gradientUnits="userSpaceOnUse">
<stop stop-color="#DC9643"/>
<stop offset="1" stop-color="#FABF79"/>
</linearGradient>
<clipPath id="clip0_53_87">
<rect width="900" height="900" fill="white"/>
</clipPath>
<clipPath id="clip1_53_87">
<rect width="1440" height="987" fill="white" transform="translate(-270 -64)"/>
</clipPath>
<clipPath id="clip2_53_87">
<rect width="211" height="151" fill="white" transform="translate(126 458.764) rotate(-47.9839)"/>
</clipPath>
</defs>
</svg>
