<svg width="1431" height="637" viewBox="0 0 1431 637" fill="none" xmlns="http://www.w3.org/2000/svg">
<g clip-path="url(#clip0_53_17)">
<rect width="1431" height="637" fill="white"/>
<rect y="-156" width="1440" height="1024" fill="#2A183D"/>
<g clip-path="url(#clip1_53_17)">
<path d="M649 896L893.256 575.801C893.256 575.801 976.351 473.066 884.207 398.084C794.412 325.007 719.675 410.649 719.675 410.649L568.239 594.338C568.239 594.338 502.15 671.901 426.433 605.173C350.716 538.445 418.788 454.796 418.788 454.796L915.265 -128.576" stroke="url(#paint0_linear_53_17)" stroke-opacity="0.8" stroke-width="84" stroke-miterlimit="10"/>
<path d="M643.52 313.12C639.093 313.12 634.987 312.427 631.2 311.04C627.467 309.6 624.213 307.573 621.44 304.96C618.72 302.347 616.587 299.28 615.04 295.76C613.493 292.187 612.72 288.267 612.72 284C612.72 279.733 613.493 275.84 615.04 272.32C616.587 268.747 618.72 265.653 621.44 263.04C624.213 260.427 627.467 258.427 631.2 257.04C634.987 255.6 639.093 254.88 643.52 254.88C648.693 254.88 653.307 255.787 657.36 257.6C661.467 259.413 664.88 262.027 667.6 265.44L657.52 274.56C655.707 272.427 653.707 270.8 651.52 269.68C649.387 268.56 646.987 268 644.32 268C642.027 268 639.92 268.373 638 269.12C636.08 269.867 634.427 270.96 633.04 272.4C631.707 273.787 630.64 275.467 629.84 277.44C629.093 279.413 628.72 281.6 628.72 284C628.72 286.4 629.093 288.587 629.84 290.56C630.64 292.533 631.707 294.24 633.04 295.68C634.427 297.067 636.08 298.133 638 298.88C639.92 299.627 642.027 300 644.32 300C646.987 300 649.387 299.44 651.52 298.32C653.707 297.2 655.707 295.573 657.52 293.44L667.6 302.56C664.88 305.92 661.467 308.533 657.36 310.4C653.307 312.213 648.693 313.12 643.52 313.12ZM701.731 313.12C697.251 313.12 693.117 312.4 689.331 310.96C685.544 309.52 682.237 307.493 679.411 304.88C676.637 302.213 674.477 299.12 672.931 295.6C671.384 292.08 670.611 288.213 670.611 284C670.611 279.787 671.384 275.92 672.931 272.4C674.477 268.88 676.637 265.813 679.411 263.2C682.237 260.533 685.544 258.48 689.331 257.04C693.117 255.6 697.251 254.88 701.731 254.88C706.264 254.88 710.397 255.6 714.131 257.04C717.917 258.48 721.197 260.533 723.971 263.2C726.744 265.813 728.904 268.88 730.451 272.4C732.051 275.92 732.851 279.787 732.851 284C732.851 288.213 732.051 292.107 730.451 295.68C728.904 299.2 726.744 302.267 723.971 304.88C721.197 307.493 717.917 309.52 714.131 310.96C710.397 312.4 706.264 313.12 701.731 313.12ZM701.731 300C703.864 300 705.837 299.627 707.651 298.88C709.517 298.133 711.117 297.067 712.451 295.68C713.837 294.24 714.904 292.533 715.651 290.56C716.451 288.587 716.851 286.4 716.851 284C716.851 281.547 716.451 279.36 715.651 277.44C714.904 275.467 713.837 273.787 712.451 272.4C711.117 270.96 709.517 269.867 707.651 269.12C705.837 268.373 703.864 268 701.731 268C699.597 268 697.597 268.373 695.731 269.12C693.917 269.867 692.317 270.96 690.931 272.4C689.597 273.787 688.531 275.467 687.731 277.44C686.984 279.36 686.611 281.547 686.611 284C686.611 286.4 686.984 288.587 687.731 290.56C688.531 292.533 689.597 294.24 690.931 295.68C692.317 297.067 693.917 298.133 695.731 298.88C697.597 299.627 699.597 300 701.731 300ZM741.147 312V256H767.627C773.814 256 779.254 257.147 783.947 259.44C788.64 261.733 792.294 264.96 794.907 269.12C797.574 273.28 798.907 278.24 798.907 284C798.907 289.707 797.574 294.667 794.907 298.88C792.294 303.04 788.64 306.267 783.947 308.56C779.254 310.853 773.814 312 767.627 312H741.147ZM756.987 299.36H766.987C770.187 299.36 772.96 298.773 775.307 297.6C777.707 296.373 779.574 294.613 780.907 292.32C782.24 289.973 782.907 287.2 782.907 284C782.907 280.747 782.24 277.973 780.907 275.68C779.574 273.387 777.707 271.653 775.307 270.48C772.96 269.253 770.187 268.64 766.987 268.64H756.987V299.36ZM821.801 277.68H847.801V289.52H821.801V277.68ZM822.921 299.76H852.201V312H807.241V256H851.161V268.24H822.921V299.76ZM643.52 399.12C639.093 399.12 634.987 398.427 631.2 397.04C627.467 395.6 624.213 393.573 621.44 390.96C618.72 388.347 616.587 385.28 615.04 381.76C613.493 378.187 612.72 374.267 612.72 370C612.72 365.733 613.493 361.84 615.04 358.32C616.587 354.747 618.72 351.653 621.44 349.04C624.213 346.427 627.467 344.427 631.2 343.04C634.987 341.6 639.093 340.88 643.52 340.88C648.693 340.88 653.307 341.787 657.36 343.6C661.467 345.413 664.88 348.027 667.6 351.44L657.52 360.56C655.707 358.427 653.707 356.8 651.52 355.68C649.387 354.56 646.987 354 644.32 354C642.027 354 639.92 354.373 638 355.12C636.08 355.867 634.427 356.96 633.04 358.4C631.707 359.787 630.64 361.467 629.84 363.44C629.093 365.413 628.72 367.6 628.72 370C628.72 372.4 629.093 374.587 629.84 376.56C630.64 378.533 631.707 380.24 633.04 381.68C634.427 383.067 636.08 384.133 638 384.88C639.92 385.627 642.027 386 644.32 386C646.987 386 649.387 385.44 651.52 384.32C653.707 383.2 655.707 381.573 657.52 379.44L667.6 388.56C664.88 391.92 661.467 394.533 657.36 396.4C653.307 398.213 648.693 399.12 643.52 399.12ZM701.731 399.12C697.251 399.12 693.117 398.4 689.331 396.96C685.544 395.52 682.237 393.493 679.411 390.88C676.637 388.213 674.477 385.12 672.931 381.6C671.384 378.08 670.611 374.213 670.611 370C670.611 365.787 671.384 361.92 672.931 358.4C674.477 354.88 676.637 351.813 679.411 349.2C682.237 346.533 685.544 344.48 689.331 343.04C693.117 341.6 697.251 340.88 701.731 340.88C706.264 340.88 710.397 341.6 714.131 343.04C717.917 344.48 721.197 346.533 723.971 349.2C726.744 351.813 728.904 354.88 730.451 358.4C732.051 361.92 732.851 365.787 732.851 370C732.851 374.213 732.051 378.107 730.451 381.68C728.904 385.2 726.744 388.267 723.971 390.88C721.197 393.493 717.917 395.52 714.131 396.96C710.397 398.4 706.264 399.12 701.731 399.12ZM701.731 386C703.864 386 705.837 385.627 707.651 384.88C709.517 384.133 711.117 383.067 712.451 381.68C713.837 380.24 714.904 378.533 715.651 376.56C716.451 374.587 716.851 372.4 716.851 370C716.851 367.547 716.451 365.36 715.651 363.44C714.904 361.467 713.837 359.787 712.451 358.4C711.117 356.96 709.517 355.867 707.651 355.12C705.837 354.373 703.864 354 701.731 354C699.597 354 697.597 354.373 695.731 355.12C693.917 355.867 692.317 356.96 690.931 358.4C689.597 359.787 688.531 361.467 687.731 363.44C686.984 365.36 686.611 367.547 686.611 370C686.611 372.4 686.984 374.587 687.731 376.56C688.531 378.533 689.597 380.24 690.931 381.68C692.317 383.067 693.917 384.133 695.731 384.88C697.597 385.627 699.597 386 701.731 386ZM741.147 398V342H754.187L777.387 380.08H770.507L793.067 342H806.107L806.267 398H791.707L791.547 364.16H794.027L777.147 392.48H770.107L752.747 364.16H755.787V398H741.147ZM817.475 398V342H843.075C848.195 342 852.595 342.827 856.275 344.48C860.008 346.133 862.888 348.533 864.915 351.68C866.942 354.773 867.955 358.453 867.955 362.72C867.955 366.933 866.942 370.587 864.915 373.68C862.888 376.773 860.008 379.173 856.275 380.88C852.595 382.533 848.195 383.36 843.075 383.36H826.275L833.315 376.48V398H817.475ZM833.315 378.16L826.275 370.88H842.115C845.422 370.88 847.875 370.16 849.475 368.72C851.128 367.28 851.955 365.28 851.955 362.72C851.955 360.107 851.128 358.08 849.475 356.64C847.875 355.2 845.422 354.48 842.115 354.48H826.275L833.315 347.2V378.16ZM866.146 398L890.866 342H906.466L931.266 398H914.786L895.426 349.76H901.666L882.306 398H866.146ZM879.666 387.12L883.746 375.44H911.106L915.186 387.12H879.666ZM955.436 399.12C950.85 399.12 946.423 398.56 942.156 397.44C937.943 396.267 934.503 394.773 931.836 392.96L937.036 381.28C939.543 382.88 942.423 384.213 945.676 385.28C948.983 386.293 952.263 386.8 955.516 386.8C957.703 386.8 959.463 386.613 960.796 386.24C962.13 385.813 963.09 385.28 963.676 384.64C964.316 383.947 964.636 383.147 964.636 382.24C964.636 380.96 964.05 379.947 962.876 379.2C961.703 378.453 960.183 377.84 958.316 377.36C956.45 376.88 954.37 376.4 952.076 375.92C949.836 375.44 947.57 374.827 945.276 374.08C943.036 373.333 940.983 372.373 939.116 371.2C937.25 369.973 935.73 368.4 934.556 366.48C933.383 364.507 932.796 362.027 932.796 359.04C932.796 355.68 933.703 352.64 935.516 349.92C937.383 347.2 940.156 345.013 943.836 343.36C947.516 341.707 952.103 340.88 957.596 340.88C961.276 340.88 964.876 341.307 968.396 342.16C971.97 342.96 975.143 344.16 977.916 345.76L973.036 357.52C970.37 356.08 967.73 355.013 965.116 354.32C962.503 353.573 959.97 353.2 957.516 353.2C955.33 353.2 953.57 353.44 952.236 353.92C950.903 354.347 949.943 354.933 949.356 355.68C948.77 356.427 948.476 357.28 948.476 358.24C948.476 359.467 949.036 360.453 950.156 361.2C951.33 361.893 952.85 362.48 954.716 362.96C956.636 363.387 958.716 363.84 960.956 364.32C963.25 364.8 965.516 365.413 967.756 366.16C970.05 366.853 972.13 367.813 973.996 369.04C975.863 370.213 977.356 371.787 978.476 373.76C979.65 375.68 980.236 378.107 980.236 381.04C980.236 384.293 979.303 387.307 977.436 390.08C975.623 392.8 972.876 394.987 969.196 396.64C965.57 398.293 960.983 399.12 955.436 399.12ZM1007.23 399.12C1002.65 399.12 998.22 398.56 993.953 397.44C989.74 396.267 986.3 394.773 983.633 392.96L988.833 381.28C991.34 382.88 994.22 384.213 997.473 385.28C1000.78 386.293 1004.06 386.8 1007.31 386.8C1009.5 386.8 1011.26 386.613 1012.59 386.24C1013.93 385.813 1014.89 385.28 1015.47 384.64C1016.11 383.947 1016.43 383.147 1016.43 382.24C1016.43 380.96 1015.85 379.947 1014.67 379.2C1013.5 378.453 1011.98 377.84 1010.11 377.36C1008.25 376.88 1006.17 376.4 1003.87 375.92C1001.63 375.44 999.366 374.827 997.073 374.08C994.833 373.333 992.78 372.373 990.913 371.2C989.046 369.973 987.526 368.4 986.353 366.48C985.18 364.507 984.593 362.027 984.593 359.04C984.593 355.68 985.5 352.64 987.313 349.92C989.18 347.2 991.953 345.013 995.633 343.36C999.313 341.707 1003.9 340.88 1009.39 340.88C1013.07 340.88 1016.67 341.307 1020.19 342.16C1023.77 342.96 1026.94 344.16 1029.71 345.76L1024.83 357.52C1022.17 356.08 1019.53 355.013 1016.91 354.32C1014.3 353.573 1011.77 353.2 1009.31 353.2C1007.13 353.2 1005.37 353.44 1004.03 353.92C1002.7 354.347 1001.74 354.933 1001.15 355.68C1000.57 356.427 1000.27 357.28 1000.27 358.24C1000.27 359.467 1000.83 360.453 1001.95 361.2C1003.13 361.893 1004.65 362.48 1006.51 362.96C1008.43 363.387 1010.51 363.84 1012.75 364.32C1015.05 364.8 1017.31 365.413 1019.55 366.16C1021.85 366.853 1023.93 367.813 1025.79 369.04C1027.66 370.213 1029.15 371.787 1030.27 373.76C1031.45 375.68 1032.03 378.107 1032.03 381.04C1032.03 384.293 1031.1 387.307 1029.23 390.08C1027.42 392.8 1024.67 394.987 1020.99 396.64C1017.37 398.293 1012.78 399.12 1007.23 399.12Z" fill="white"/>
<path d="M147 -165L372.071 21.3375C372.071 21.3375 461.339 101.246 387.142 188.966C312.942 276.663 215.886 204.735 215.886 204.735L166.763 173.966C166.763 173.966 61.7503 93.7649 -12.7783 190.519C-85.4141 284.807 2.20303 357.221 2.20303 357.221L190.005 503.527C190.005 503.527 269.333 567.486 202.922 647.202C136.51 726.919 51.0001 661.198 51.0001 661.198L-288.699 378.149" stroke="url(#paint1_linear_53_17)" stroke-opacity="0.9" stroke-width="84" stroke-miterlimit="10"/>
<path d="M1139.93 911.678L1066.47 852.842C1066.47 852.842 975.67 774.671 1048.41 685.174C1121.15 595.701 1219.6 665.708 1219.6 665.708L1267.88 705.605C1267.88 705.605 1374.45 783.732 1447.36 685.174C1518.42 589.129 1429.41 518.434 1429.41 518.434L1039.21 198.977C1039.21 198.977 958.653 136.578 1023.74 55.2692C1088.82 -26.0399 1175.6 37.9937 1175.6 37.9937L1520.74 314.386" stroke="url(#paint2_linear_53_17)" stroke-opacity="0.82" stroke-width="84" stroke-miterlimit="10"/>
<g clip-path="url(#clip2_53_17)">
<path d="M498.412 320.197C499.957 317.314 503.791 316.63 506.224 318.822L536.494 346.092C538.916 348.274 538.644 352.148 535.947 353.993L509.618 371.936C502.827 370.194 496.223 366.768 490.472 361.587C486.977 358.438 484.095 354.907 481.823 351.147L498.411 320.177L498.412 320.197ZM474.95 363.978C476.984 366.549 479.259 368.983 481.771 371.246C486.254 375.284 491.203 378.517 496.411 380.936L488.846 386.091C484.517 383.628 480.36 380.645 476.464 377.136C474.481 375.348 472.626 373.48 470.9 371.541L474.95 363.978ZM464.429 383.621C465.505 384.702 466.616 385.761 467.763 386.794C470.745 389.481 473.87 391.914 477.108 394.091L465.276 402.155C460.933 405.114 455.519 400.256 458.009 395.608L464.429 383.621Z" fill="white"/>
<path d="M470.959 278.97C493.302 254.169 528.935 248.48 557.282 262.984L540.311 273.342C520.267 267.488 497.699 273.099 482.8 289.637C462.085 312.631 463.92 348.171 486.891 368.866C507.615 387.537 538.569 387.84 559.638 370.836L568.873 383.861C541.82 405.122 502.625 404.512 476.214 380.717C446.666 354.097 444.313 308.546 470.959 278.97Z" fill="white"/>
<path d="M551.229 337.117L591.294 262.319C593.85 257.556 588.297 252.572 583.835 255.599L513.758 303.359C510.982 305.25 510.715 309.226 513.202 311.467L543.213 338.504C545.71 340.754 549.647 340.064 551.228 337.097L551.229 337.117Z" fill="white"/>
</g>
</g>
</g>
<defs>
<linearGradient id="paint0_linear_53_17" x1="1074" y1="163.5" x2="600" y2="776" gradientUnits="userSpaceOnUse">
<stop stop-color="#601B13"/>
<stop offset="1" stop-color="#EA5645"/>
</linearGradient>
<linearGradient id="paint1_linear_53_17" x1="210" y1="813.5" x2="213.5" y2="-89.5001" gradientUnits="userSpaceOnUse">
<stop stop-color="#A3D9F7"/>
<stop offset="0.906954" stop-color="#0C689B"/>
</linearGradient>
<linearGradient id="paint2_linear_53_17" x1="1086" y1="-79.4999" x2="1210.5" y2="717.5" gradientUnits="userSpaceOnUse">
<stop stop-color="#DC9643"/>
<stop offset="1" stop-color="#FABF79"/>
</linearGradient>
<clipPath id="clip0_53_17">
<rect width="1431" height="637" fill="white"/>
</clipPath>
<clipPath id="clip1_53_17">
<rect width="1440" height="987" fill="white" transform="translate(0 -118)"/>
</clipPath>
<clipPath id="clip2_53_17">
<rect width="211" height="151" fill="white" transform="translate(395 354.764) rotate(-47.9839)"/>
</clipPath>
</defs>
</svg>
