<svg width="719" height="112" viewBox="0 0 719 112" fill="none" xmlns="http://www.w3.org/2000/svg">
<path d="M253.08 29.31H243.87V78.31H253.08V29.31Z" fill="#F4D916"/>
<path d="M265.84 29.31H256.63V78.31H265.84V29.31Z" fill="#F4D916"/>
<path d="M279.24 29.31H270.03V78.31H279.24V29.31Z" fill="#F4D916"/>
<path d="M310.5 29.06C296.97 29.06 286 40.03 286 53.56C286 67.09 296.97 78.06 310.5 78.06C324.03 78.06 335 67.09 335 53.56C335 40.03 324.03 29.06 310.5 29.06ZM310.5 64.56C304.42 64.56 299.5 59.64 299.5 53.56C299.5 47.48 304.42 42.56 310.5 42.56C316.58 42.56 321.5 47.48 321.5 53.56C321.5 59.64 316.58 64.56 310.5 64.56Z" fill="#F4D916"/>
<g clip-path="url(#clip0_1_194)">
<path d="M563.66 61.16H548.99V75.83L575.28 102.12V88.02H590.72L563.76 61.06L563.66 61.16ZM561.84 74.59H554.8V67.55H561.84V74.59ZM568.23 80.98H575.27V88.02H568.23V80.98Z" fill="#33FF6D"/>
<path d="M544.92 14.53H540.03V52.83H501.63V57.72H540.03V96.22H544.92V57.72H583.33V52.83H544.92V14.53Z" fill="#33FF6D"/>
<path d="M499.04 52.83H493.88V57.99H499.04V52.83Z" fill="#33FF6D"/>
<path d="M545.06 7.46001H539.9V12.62H545.06V7.46001Z" fill="#33FF6D"/>
<path d="M584.65 91.47H579.49V96.63H584.65V91.47Z" fill="#33FF6D"/>
<path d="M590.72 52.7H585.56V57.86H590.72V52.7Z" fill="#33FF6D"/>
<path d="M545.06 98.47H539.9V103.63H545.06V98.47Z" fill="#33FF6D"/>
<path d="M567.79 61.15L581.23 74.59L586.52 69.3L578.36 61.15H567.79Z" fill="#33FF6D"/>
<path d="M548.58 90.31L556.73 98.47L562.02 93.19L548.58 79.74V90.31Z" fill="#33FF6D"/>
<path d="M535.15 62.42H520.48L494.19 88.71H508.29V104.15L535.25 77.19L535.15 77.09V62.42ZM515.33 88.7H508.29V81.66H515.33V88.7ZM528.76 75.27H521.72V68.23H528.76V75.27Z" fill="#33FF6D"/>
<path d="M504.85 92.93H499.69V98.09H504.85V92.93Z" fill="#33FF6D"/>
<path d="M527.01 99.95L535.16 91.8V81.23L521.72 94.67L527.01 99.95Z" fill="#33FF6D"/>
<path d="M503.12 75.45L516.56 62.01H505.99L497.84 70.17L503.12 75.45Z" fill="#33FF6D"/>
<path d="M520.34 47.9H535.01V33.23L508.73 6.94V21.04H493.29L520.25 48L520.35 47.9H520.34ZM522.16 34.47H529.2V41.51H522.16V34.47ZM515.77 28.08H508.73V21.04H515.77V28.08Z" fill="#33FF6D"/>
<path d="M504.51 12.43H499.35V17.59H504.51V12.43Z" fill="#33FF6D"/>
<path d="M516.21 47.91L502.77 34.47L497.48 39.76L505.64 47.91H516.21Z" fill="#33FF6D"/>
<path d="M535.42 18.74L527.27 10.59L521.98 15.87L535.42 29.31V18.74Z" fill="#33FF6D"/>
<path d="M548.85 46.64H563.52L589.81 20.35H575.71V4.91L548.75 31.87L548.85 31.97V46.64ZM568.67 20.35H575.71V27.39H568.67V20.35ZM555.24 33.79H562.28V40.83H555.24V33.79Z" fill="#33FF6D"/>
<path d="M584.32 10.97H579.16V16.13H584.32V10.97Z" fill="#33FF6D"/>
<path d="M556.99 9.10001L548.84 17.26V27.83L562.28 14.39L556.99 9.10001Z" fill="#33FF6D"/>
<path d="M580.88 33.6L567.44 47.05H578.01L586.16 38.89L580.88 33.6Z" fill="#33FF6D"/>
</g>
<path d="M106.29 43.21C105.01 43.21 103.97 44.25 103.97 45.53V56.22C103.97 58.03 102.91 59.57 101.65 59.57H101.22C99.9599 59.57 98.8999 58.04 98.8999 56.22V50.83C98.8999 46.42 95.7699 42.83 91.9299 42.83H91.6399C87.7999 42.83 84.6699 46.42 84.6699 50.83V56.22C84.6699 58.03 83.6099 59.57 82.3499 59.57C81.0899 59.57 80.0299 58.04 80.0299 56.22V50.83C80.0299 46.42 76.8999 42.83 73.0599 42.83H72.9099C69.0699 42.83 65.9399 46.42 65.9399 50.83V61.89C65.9399 63.17 66.9799 64.21 68.2599 64.21C69.5399 64.21 70.5799 63.17 70.5799 61.89V50.83C70.5799 49.02 71.6399 47.48 72.8999 47.48H73.0499C74.3099 47.48 75.3699 49.01 75.3699 50.83V56.22C75.3699 60.63 78.4999 64.22 82.3399 64.22C86.1799 64.22 89.3099 60.63 89.3099 56.22V50.83C89.3099 49.02 90.3699 47.48 91.6299 47.48H91.9199C93.1799 47.48 94.2399 49.01 94.2399 50.83V56.22C94.2399 60.63 97.3699 64.22 101.21 64.22H101.64C105.48 64.22 108.61 60.63 108.61 56.22V45.53C108.61 44.25 107.57 43.21 106.29 43.21Z" fill="#8900D9"/>
<path d="M36.73 60.23C40.4303 60.23 43.43 57.2303 43.43 53.53C43.43 49.8297 40.4303 46.83 36.73 46.83C33.0297 46.83 30.03 49.8297 30.03 53.53C30.03 57.2303 33.0297 60.23 36.73 60.23Z" fill="#8900D9"/>
<path d="M57.89 52.5C59.23 52.23 60.09 50.93 59.82 49.59C59.55 48.25 58.25 47.39 56.91 47.66L51.85 48.68C51.63 47.99 51.35 47.33 51.04 46.69L55.35 43.43C56.44 42.61 56.65 41.06 55.83 39.97C55.01 38.88 53.46 38.67 52.37 39.49L48.24 42.62C47.75 42.1 47.22 41.61 46.66 41.16L49.12 36.36C49.74 35.15 49.26 33.66 48.05 33.03C46.84 32.4 45.35 32.89 44.72 34.1L42.36 38.71C41.69 38.46 41.01 38.25 40.3 38.08L40.44 32.68C40.47 31.32 39.4 30.18 38.03 30.15C36.67 30.12 35.53 31.19 35.5 32.56L35.37 37.73C34.65 37.79 33.94 37.9 33.24 38.06L31.02 33.14C30.46 31.9 29 31.34 27.75 31.9C26.51 32.46 25.95 33.92 26.51 35.17L28.64 39.89C28.02 40.26 27.43 40.66 26.87 41.1L22.74 37.63C21.7 36.75 20.14 36.89 19.26 37.93C18.38 38.97 18.52 40.53 19.56 41.41L23.52 44.73C23.12 45.33 22.78 45.96 22.46 46.6L17.22 45.26C15.9 44.92 14.55 45.72 14.22 47.04C13.88 48.36 14.68 49.71 16 50.04L21.02 51.32C20.92 52.02 20.86 52.74 20.85 53.47L15.57 54.54C14.23 54.81 13.37 56.11 13.64 57.45C13.91 58.79 15.21 59.65 16.55 59.38L21.61 58.36C21.83 59.05 22.11 59.71 22.42 60.35L18.11 63.61C17.02 64.43 16.81 65.98 17.63 67.07C18.45 68.16 20 68.37 21.09 67.55L25.22 64.42C25.71 64.94 26.24 65.43 26.8 65.88L24.34 70.68C23.72 71.89 24.2 73.38 25.41 74.01C26.62 74.64 28.11 74.15 28.74 72.94L31.1 68.33C31.77 68.58 32.45 68.8 33.16 68.96L33.02 74.36C32.99 75.72 34.06 76.86 35.43 76.89C36.8 76.92 37.93 75.85 37.96 74.48L38.09 69.31C38.81 69.25 39.52 69.14 40.22 68.98L42.44 73.9C43 75.14 44.46 75.7 45.71 75.14C46.95 74.58 47.51 73.12 46.95 71.87L44.82 67.15C45.44 66.78 46.03 66.38 46.59 65.93L50.72 69.4C51.76 70.28 53.32 70.14 54.2 69.1C55.08 68.06 54.94 66.5 53.9 65.62L49.94 62.3C50.34 61.7 50.68 61.07 51 60.43L56.23 61.76C57.55 62.1 58.9 61.3 59.23 59.98C59.56 58.66 58.77 57.31 57.45 56.98L52.43 55.7C52.53 55 52.59 54.28 52.6 53.55L57.88 52.48L57.89 52.5ZM47.64 53.53C47.64 59.55 42.76 64.44 36.73 64.44C30.7 64.44 25.82 59.56 25.82 53.53C25.82 47.5 30.7 42.62 36.73 42.62C42.76 42.62 47.64 47.5 47.64 53.53Z" fill="#8900D9"/>
<path d="M177.72 16.27L177.31 16.25H138.53H131C145.8 21.9 156.35 36.26 156.35 53.03C156.35 69.8 145.8 84.15 131 89.8H137.03H177.12L177.72 89.78C197.57 89.38 213.72 72.89 213.72 53.03C213.72 33.17 197.58 16.67 177.72 16.27ZM208.8 61.77C208.16 64.14 205.11 64.37 201.87 64.6C200.84 64.67 199.24 64.79 198.46 65C198.65 65.81 199.36 67.35 199.82 68.33C201.15 71.18 202.41 73.87 200.72 75.54C199.02 77.24 196.27 75.96 193.36 74.62C192.42 74.18 190.95 73.5 190.15 73.31C189.93 74.12 189.86 75.86 189.81 76.97C189.67 80.21 189.55 83.01 187.35 83.72C184.94 84.5 183.09 81.98 181.13 79.31C180.6 78.59 179.79 77.49 179.22 76.9C178.9 77.56 178.53 78.76 178.3 79.55C177.52 82.15 176.63 85.11 174 85.11C171.37 85.11 170.48 82.16 169.7 79.55C169.49 78.85 169.18 77.82 168.88 77.13C168.59 77.82 168.28 78.85 168.07 79.55C167.29 82.15 166.4 85.11 163.77 85.11C161.14 85.11 160.25 82.16 159.47 79.55C159.26 78.85 158.95 77.82 158.66 77.14C158.36 77.83 158.05 78.85 157.84 79.55C157.06 82.15 156.17 85.11 153.54 85.11C151.99 85.11 151.05 84.08 150.37 82.7C153.56 79.92 156.31 76.64 158.47 72.97C158.53 72.97 158.59 72.95 158.65 72.95C161.28 72.95 162.17 75.9 162.95 78.51C163.16 79.21 163.47 80.24 163.77 80.93C164.06 80.24 164.37 79.21 164.58 78.51C165.36 75.91 166.25 72.95 168.88 72.95C171.51 72.95 172.4 75.9 173.18 78.51C173.39 79.21 173.7 80.24 174 80.93C174.29 80.24 174.6 79.22 174.81 78.51C175.59 75.91 176.48 72.96 179.11 72.95H179.13C180.98 72.95 182.34 74.81 184.07 77.16C184.6 77.88 185.37 78.94 185.98 79.62C186.09 78.78 186.14 77.62 186.18 76.82C186.31 73.77 186.42 71.12 188.19 70.04C189.89 69.01 192.21 70.08 194.9 71.33C195.68 71.69 196.83 72.22 197.67 72.51C197.38 71.7 196.88 70.62 196.53 69.88C195.26 67.15 194.16 64.8 195.2 63.05C196.2 61.37 198.71 61.19 201.62 60.98C202.46 60.92 203.68 60.83 204.56 60.69C203.92 60.17 203.02 59.55 202.39 59.12C199.87 57.39 197.69 55.89 197.69 53.81C197.69 51.64 200.03 50.04 202.52 48.35C203.24 47.86 204.31 47.14 204.95 46.59C204.06 46.31 202.59 46.08 201.61 45.93C198.75 45.49 196.27 45.1 195.41 43.34C194.48 41.48 195.69 39.16 197.09 36.46C197.49 35.7 198.08 34.58 198.39 33.76C197.51 34 196.24 34.51 195.38 34.86C192.66 35.97 190.31 36.93 188.63 35.89C186.9 34.82 186.7 32.25 186.47 29.26C186.39 28.36 186.3 27.04 186.12 26.17C185.5 26.83 184.7 27.93 184.16 28.67C182.41 31.06 180.91 33.12 178.91 33.12C177.55 33.12 176.62 32.39 175.93 31.33C175.24 30.27 174.78 28.9 174.35 27.61C174.07 26.77 173.63 25.45 173.25 24.82C172.87 25.44 172.43 26.76 172.15 27.62C171.29 30.2 170.32 33.12 167.59 33.12C164.86 33.12 163.89 30.2 163.03 27.61C162.75 26.77 162.31 25.44 161.93 24.82C161.55 25.44 161.11 26.76 160.82 27.62C160.19 29.5 159.51 31.57 158.12 32.54C155.57 28.39 152.28 24.74 148.43 21.79C149.01 21.28 149.71 20.96 150.6 20.96C153.33 20.96 154.3 23.88 155.16 26.46C155.44 27.31 155.88 28.63 156.27 29.25C156.65 28.63 157.09 27.31 157.37 26.46C158.23 23.88 159.2 20.96 161.93 20.96C164.66 20.96 165.63 23.88 166.48 26.46C166.77 27.31 167.2 28.63 167.59 29.25C167.97 28.63 168.41 27.31 168.69 26.46C169.55 23.88 170.52 20.96 173.25 20.96C175.98 20.96 176.95 23.88 177.81 26.46C178.1 27.34 178.56 28.73 178.96 29.32C179.58 28.78 180.59 27.4 181.23 26.52C183.13 23.91 184.92 21.45 187.28 22.13C189.62 22.79 189.85 25.79 190.1 28.97C190.19 30.11 190.33 31.92 190.6 32.67C191.38 32.56 193 31.9 194.02 31.49C197.03 30.26 199.87 29.11 201.54 30.95C203.15 32.72 201.77 35.35 200.33 38.14C199.79 39.17 198.94 40.82 198.76 41.62C199.48 41.91 201.13 42.17 202.17 42.33C205.42 42.84 208.48 43.32 209.01 45.77C209.49 48.02 207.21 49.56 204.57 51.36C203.57 52.04 201.96 53.13 201.44 53.78C201.96 54.41 203.49 55.45 204.46 56.11C207.12 57.94 209.43 59.52 208.82 61.78L208.8 61.77Z" fill="#33FF6D"/>
<path d="M412.89 93.25H412.84V91.77C415.31 94.52 419.1 95.99 423.02 95.34C426.94 94.69 430.06 92.1 431.53 88.7L432.01 90.11H431.96C432.04 90.43 432.11 90.75 432.17 91.08C433.04 96.37 429.45 101.37 424.16 102.23C418.87 103.1 413.87 99.51 413.01 94.22C412.96 93.89 412.92 93.56 412.9 93.24L412.89 93.25Z" fill="#8900D9"/>
<path d="M412.93 83.95H412.89V64.76L415.7 64.3L416.56 77.54H416.58C416.59 77.65 416.6 77.78 416.62 77.89C416.93 79.8 418.73 81.09 420.64 80.77C422.55 80.45 423.84 78.66 423.52 76.75C423.5 76.64 423.47 76.51 423.45 76.4H423.47L420.06 63.58L422.87 63.12L429 81.31H428.96C429.03 81.58 429.09 81.85 429.13 82.13C429.86 86.58 426.85 90.77 422.4 91.5C417.95 92.23 413.76 89.22 413.03 84.77C412.98 84.49 412.95 84.22 412.93 83.94V83.95Z" fill="#8900D9"/>
<path d="M386.51 79.47L386.47 79.44L387.52 78.39C387.32 82.09 388.96 85.8 392.19 88.12C395.42 90.44 399.46 90.81 402.9 89.44L402.24 90.77L402.2 90.74C402.04 91.02 401.86 91.3 401.66 91.57C398.53 95.92 392.46 96.92 388.11 93.79C383.76 90.66 382.76 84.59 385.89 80.24C386.08 79.97 386.29 79.71 386.5 79.47H386.51Z" fill="#8900D9"/>
<path d="M393.12 72.93L393.09 72.91L406.67 59.34L408.98 61L400.23 70.97H400.24C400.17 71.07 400.09 71.17 400.02 71.26C398.89 72.83 399.25 75.01 400.82 76.14C402.39 77.27 404.57 76.91 405.7 75.34C405.77 75.25 405.83 75.14 405.9 75.04H405.91L412.56 63.58L414.87 65.24L406.34 82.44L406.31 82.42C406.17 82.65 406.02 82.89 405.86 83.12C403.23 86.78 398.13 87.62 394.47 84.99C390.81 82.36 389.97 77.26 392.6 73.6C392.76 73.37 392.94 73.15 393.12 72.95V72.93Z" fill="#8900D9"/>
<path d="M377.6 51.08V51.03H379.08C376.33 53.5 374.86 57.29 375.51 61.21C376.15 65.14 378.75 68.25 382.15 69.72L380.74 70.2V70.15C380.42 70.23 380.1 70.3 379.77 70.36C374.48 71.23 369.48 67.64 368.62 62.35C367.75 57.06 371.34 52.06 376.63 51.2C376.96 51.15 377.29 51.11 377.61 51.09L377.6 51.08Z" fill="#8900D9"/>
<path d="M386.9 51.12V51.08H406.09L406.55 53.89L393.31 54.75V54.77C393.2 54.78 393.07 54.79 392.96 54.81C391.05 55.12 389.76 56.92 390.08 58.83C390.39 60.74 392.19 62.03 394.1 61.71C394.21 61.69 394.34 61.66 394.45 61.64V61.66L407.27 58.25L407.73 61.06L389.54 67.19V67.15C389.27 67.22 389 67.28 388.72 67.32C384.27 68.05 380.08 65.04 379.35 60.59C378.62 56.14 381.63 51.95 386.08 51.22C386.36 51.17 386.63 51.14 386.91 51.12H386.9Z" fill="#8900D9"/>
<path d="M391.38 24.7L391.41 24.66L392.46 25.71C388.76 25.51 385.05 27.15 382.73 30.38C380.41 33.61 380.04 37.65 381.41 41.09L380.08 40.43L380.11 40.39C379.83 40.23 379.55 40.05 379.28 39.85C374.93 36.72 373.93 30.65 377.06 26.3C380.19 21.95 386.26 20.95 390.61 24.08C390.88 24.27 391.14 24.48 391.38 24.69V24.7Z" fill="#8900D9"/>
<path d="M397.93 31.3L397.95 31.27L411.52 44.85L409.86 47.16L399.89 38.41C399.8 38.35 399.7 38.27 399.61 38.2C398.04 37.07 395.86 37.43 394.73 39C393.6 40.57 393.96 42.75 395.53 43.88C395.62 43.95 395.73 44.01 395.83 44.08L407.3 50.75L405.64 53.06L388.44 44.53L388.46 44.5C388.23 44.36 387.99 44.21 387.76 44.05C384.1 41.42 383.26 36.32 385.89 32.66C388.52 29 393.62 28.16 397.28 30.79C397.51 30.95 397.73 31.13 397.93 31.31V31.3Z" fill="#8900D9"/>
<path d="M419.78 15.79H419.83V17.27C417.36 14.52 413.57 13.05 409.65 13.7C405.72 14.34 402.61 16.94 401.14 20.34L400.66 18.93H400.71C400.63 18.61 400.56 18.29 400.5 17.96C399.63 12.67 403.22 7.67 408.51 6.81C413.8 5.94 418.8 9.53 419.66 14.82C419.71 15.15 419.75 15.48 419.77 15.8L419.78 15.79Z" fill="#8900D9"/>
<path d="M419.74 25.09H419.78V44.28L416.97 44.74L416.11 31.5H416.09C416.08 31.39 416.07 31.26 416.05 31.15C415.74 29.24 413.94 27.95 412.03 28.27C410.12 28.59 408.83 30.38 409.15 32.29C409.17 32.4 409.2 32.53 409.22 32.64H409.2L412.61 45.46L409.8 45.92L403.67 27.73H403.71C403.64 27.46 403.58 27.19 403.54 26.91C402.81 22.46 405.82 18.27 410.27 17.54C414.72 16.81 418.91 19.82 419.64 24.27C419.69 24.55 419.72 24.82 419.74 25.1V25.09Z" fill="#8900D9"/>
<path d="M446.16 29.57L446.2 29.6L445.15 30.65C445.35 26.95 443.71 23.24 440.48 20.92C437.25 18.6 433.21 18.23 429.77 19.6L430.43 18.27L430.47 18.3C430.63 18.02 430.81 17.74 431.01 17.47C434.14 13.12 440.21 12.12 444.56 15.25C448.91 18.38 449.91 24.45 446.78 28.8C446.59 29.07 446.38 29.33 446.17 29.57H446.16Z" fill="#8900D9"/>
<path d="M439.55 36.12L439.58 36.14L426 49.71L423.69 48.05L432.44 38.08H432.43C432.5 37.98 432.58 37.88 432.65 37.79C433.78 36.22 433.42 34.04 431.85 32.91C430.28 31.78 428.1 32.14 426.97 33.71C426.9 33.8 426.84 33.91 426.77 34.01H426.76L420.11 45.47L417.8 43.81L426.33 26.61L426.36 26.63C426.5 26.4 426.65 26.16 426.81 25.93C429.44 22.27 434.54 21.43 438.2 24.06C441.86 26.69 442.7 31.79 440.07 35.45C439.91 35.68 439.73 35.9 439.55 36.1V36.12Z" fill="#8900D9"/>
<path d="M455.06 57.97V58.02H453.58C456.33 55.55 457.8 51.76 457.15 47.84C456.51 43.91 453.91 40.8 450.51 39.33L451.92 38.85V38.9C452.24 38.82 452.56 38.75 452.89 38.69C458.18 37.82 463.18 41.41 464.04 46.7C464.91 51.99 461.32 56.99 456.03 57.85C455.7 57.9 455.37 57.94 455.05 57.96L455.06 57.97Z" fill="#8900D9"/>
<path d="M445.77 57.93V57.97H426.58L426.12 55.16L439.36 54.3V54.28C439.47 54.27 439.6 54.26 439.71 54.24C441.62 53.93 442.91 52.13 442.59 50.22C442.28 48.31 440.48 47.02 438.57 47.34C438.46 47.36 438.33 47.39 438.22 47.41V47.39L425.4 50.8L424.94 47.99L443.13 41.86V41.9C443.4 41.83 443.67 41.77 443.95 41.73C448.4 41 452.59 44.01 453.32 48.46C454.05 52.91 451.04 57.1 446.59 57.83C446.31 57.88 446.04 57.91 445.76 57.93H445.77Z" fill="#8900D9"/>
<path d="M441.28 84.35L441.25 84.39L440.2 83.34C443.9 83.54 447.61 81.9 449.93 78.67C452.25 75.44 452.62 71.4 451.25 67.96L452.58 68.62L452.55 68.66C452.83 68.82 453.11 69 453.38 69.2C457.73 72.33 458.73 78.4 455.6 82.75C452.47 87.1 446.4 88.1 442.05 84.97C441.78 84.78 441.52 84.57 441.28 84.36V84.35Z" fill="#8900D9"/>
<path d="M434.74 77.74L434.72 77.77L421.15 64.19L422.81 61.88L432.78 70.63C432.87 70.69 432.97 70.77 433.06 70.84C434.63 71.97 436.81 71.61 437.94 70.04C439.07 68.47 438.71 66.29 437.14 65.16C437.05 65.09 436.94 65.03 436.84 64.96L425.37 58.29L427.03 55.98L444.23 64.51L444.21 64.54C444.44 64.68 444.68 64.83 444.91 64.99C448.57 67.62 449.41 72.72 446.78 76.38C444.15 80.04 439.05 80.88 435.39 78.25C435.16 78.09 434.94 77.91 434.74 77.73V77.74Z" fill="#8900D9"/>
<path d="M416.34 62.19C420.554 62.19 423.97 58.7739 423.97 54.56C423.97 50.3461 420.554 46.93 416.34 46.93C412.126 46.93 408.71 50.3461 408.71 54.56C408.71 58.7739 412.126 62.19 416.34 62.19Z" fill="#8900D9"/>
<path d="M694.46 46.97C693.76 47.08 693.08 47.41 692.54 47.95C691.88 48.61 691.54 49.47 691.51 50.34C691.5 50.97 691.26 51.59 690.78 52.07C689.8 53.04 688.23 53.04 687.25 52.07C686.27 51.1 686.28 49.52 687.25 48.54C687.72 48.08 688.32 47.83 688.93 47.81H688.97C688.97 47.81 689.03 47.81 689.07 47.81C689.91 47.76 690.73 47.42 691.37 46.78C691.91 46.24 692.24 45.57 692.36 44.86L692.18 44.68C687.43 39.93 679.94 39.57 674.77 43.6C674.23 42.97 673.65 42.39 673.02 41.86C676.89 36.69 676.48 29.34 671.79 24.65L671.62 24.48C670.93 24.6 670.27 24.92 669.73 25.46C669.07 26.12 668.73 26.98 668.7 27.85C668.69 28.48 668.45 29.1 667.97 29.58C666.99 30.56 665.42 30.56 664.44 29.58C663.47 28.61 663.47 27.03 664.44 26.06C664.91 25.59 665.51 25.35 666.12 25.33H666.16C666.16 25.33 666.22 25.33 666.26 25.33C667.1 25.28 667.92 24.94 668.56 24.3C669.09 23.77 669.42 23.11 669.54 22.42L662.59 15.47L655.68 22.38C655.79 23.08 656.12 23.76 656.66 24.3C657.32 24.96 658.18 25.3 659.05 25.33C659.68 25.34 660.3 25.59 660.78 26.06C661.75 27.04 661.75 28.61 660.78 29.59C659.81 30.57 658.23 30.56 657.25 29.59C656.79 29.12 656.54 28.52 656.52 27.91V27.87C656.52 27.87 656.52 27.81 656.52 27.77C656.48 26.93 656.13 26.1 655.49 25.47C654.95 24.93 654.28 24.6 653.57 24.48L653.39 24.66C648.6 29.45 648.27 37.03 652.41 42.21C651.9 42.68 651.42 43.17 650.97 43.7C645.79 39.46 638.14 39.76 633.32 44.59L633.15 44.76C633.27 45.45 633.59 46.11 634.13 46.65C634.79 47.31 635.65 47.65 636.52 47.68C637.15 47.69 637.77 47.94 638.24 48.41C639.22 49.39 639.22 50.96 638.24 51.94C637.27 52.91 635.69 52.91 634.72 51.94C634.25 51.47 634.01 50.87 633.99 50.26V50.22C633.99 50.22 633.99 50.16 633.99 50.12C633.95 49.28 633.6 48.45 632.96 47.82C632.43 47.29 631.77 46.96 631.08 46.84L624.13 53.79L631.04 60.7C631.74 60.59 632.42 60.26 632.96 59.72C633.62 59.06 633.96 58.2 633.99 57.33C634 56.7 634.24 56.08 634.72 55.6C635.7 54.63 637.27 54.63 638.25 55.6C639.22 56.57 639.22 58.15 638.25 59.13C637.78 59.59 637.18 59.84 636.57 59.86H636.53C636.53 59.86 636.47 59.86 636.43 59.86C635.59 59.91 634.77 60.25 634.13 60.89C633.59 61.43 633.26 62.1 633.14 62.81L633.32 62.99C638.15 67.82 645.8 68.12 650.97 63.88C651.49 64.49 652.05 65.06 652.65 65.58C648.59 70.75 648.94 78.26 653.7 83.03L653.87 83.2C654.56 83.08 655.22 82.76 655.76 82.22C656.42 81.56 656.76 80.7 656.79 79.83C656.8 79.2 657.04 78.58 657.52 78.1C658.5 77.12 660.07 77.12 661.05 78.1C662.02 79.07 662.02 80.65 661.05 81.62C660.58 82.09 659.98 82.33 659.37 82.35H659.33C659.33 82.35 659.27 82.35 659.23 82.35C658.39 82.4 657.57 82.74 656.93 83.38C656.4 83.91 656.07 84.57 655.95 85.26L662.9 92.21L669.81 85.3C669.7 84.6 669.37 83.92 668.83 83.38C668.17 82.72 667.31 82.38 666.44 82.35C665.81 82.34 665.19 82.09 664.71 81.62C663.74 80.64 663.74 79.07 664.71 78.09C665.68 77.12 667.26 77.12 668.24 78.09C668.7 78.56 668.95 79.16 668.97 79.77V79.81C668.97 79.81 668.97 79.87 668.97 79.91C669.01 80.75 669.36 81.58 670 82.21C670.54 82.75 671.21 83.08 671.92 83.2L672.1 83.02C676.87 78.26 677.21 70.75 673.15 65.57C673.68 65.11 674.18 64.61 674.64 64.08C679.81 68.2 687.37 67.88 692.16 63.09L692.33 62.92C692.21 62.23 691.89 61.57 691.35 61.03C690.69 60.37 689.83 60.03 688.96 60C688.33 59.99 687.71 59.74 687.24 59.27C686.26 58.29 686.26 56.72 687.24 55.74C688.21 54.77 689.79 54.77 690.76 55.74C691.23 56.21 691.47 56.81 691.49 57.42V57.46C691.49 57.46 691.49 57.52 691.49 57.56C691.53 58.4 691.88 59.23 692.52 59.86C693.05 60.39 693.71 60.72 694.4 60.84L701.35 53.89L694.44 46.98L694.46 46.97ZM673.73 57.42C673.23 57.42 672.75 57.32 672.31 57.16C671.29 59.55 669.39 61.48 667.01 62.52C667.07 62.79 667.1 63.08 667.1 63.37C667.1 65.6 665.29 67.41 663.06 67.41C660.83 67.41 659.02 65.6 659.02 63.37C659.02 63.12 659.05 62.87 659.09 62.63C656.56 61.6 654.54 59.6 653.5 57.08C653.16 57.17 652.81 57.22 652.45 57.22C650.22 57.22 648.41 55.41 648.41 53.18C648.41 50.95 650.22 49.14 652.45 49.14C652.81 49.14 653.17 49.19 653.5 49.28C654.55 46.74 656.59 44.73 659.14 43.71C659.06 43.4 659.02 43.08 659.02 42.75C659.02 40.52 660.83 38.71 663.06 38.71C665.29 38.71 667.1 40.52 667.1 42.75C667.1 43.12 667.05 43.47 666.95 43.81C669.47 44.9 671.47 46.98 672.45 49.55C672.85 49.42 673.28 49.34 673.73 49.34C675.96 49.34 677.77 51.15 677.77 53.38C677.77 55.61 675.96 57.42 673.73 57.42Z" fill="#F4D916"/>
<path d="M663.06 61.14C667.44 61.14 670.99 57.5896 670.99 53.21C670.99 48.8304 667.44 45.28 663.06 45.28C658.68 45.28 655.13 48.8304 655.13 53.21C655.13 57.5896 658.68 61.14 663.06 61.14Z" fill="#F4D916"/>
<path d="M709.67 54.19C709.54 54.06 709.41 53.94 709.27 53.83C709.37 53.74 709.47 53.66 709.57 53.56C712.13 51 712.13 46.86 709.57 44.3C707.1 41.83 703.16 41.75 700.59 44.04C702.88 41.47 702.79 37.52 700.33 35.06C697.86 32.59 693.91 32.51 691.34 34.8C693.63 32.23 693.55 28.28 691.08 25.81C688.61 23.34 684.67 23.26 682.1 25.55C684.39 22.98 684.31 19.03 681.84 16.57C679.39 14.12 675.47 14.02 672.9 16.27C675.25 13.7 675.18 9.71 672.7 7.22C670.14 4.66 666 4.66 663.44 7.22C663.31 7.35 663.2 7.48 663.08 7.62C662.99 7.52 662.91 7.42 662.81 7.32C660.25 4.76 656.11 4.76 653.55 7.32C651.09 9.79 651 13.73 653.29 16.3C650.72 14.01 646.77 14.09 644.31 16.56C641.85 19.03 641.76 22.97 644.05 25.54C641.48 23.25 637.53 23.33 635.07 25.8C632.6 28.27 632.52 32.21 634.81 34.79C632.24 32.5 628.29 32.58 625.82 35.05C623.37 37.5 623.27 41.42 625.52 43.99C622.95 41.64 618.96 41.71 616.47 44.19C613.98 46.67 613.91 50.89 616.47 53.45C616.6 53.58 616.73 53.69 616.87 53.81C616.77 53.9 616.67 53.98 616.57 54.08C614.01 56.64 614.01 60.78 616.57 63.34C619.02 65.79 622.94 65.89 625.51 63.64C623.16 66.21 623.22 70.2 625.71 72.69C628.18 75.16 632.12 75.24 634.7 72.95C632.41 75.52 632.49 79.47 634.96 81.94C637.43 84.41 641.37 84.49 643.94 82.2C641.65 84.77 641.73 88.72 644.2 91.18C646.67 93.65 650.61 93.73 653.18 91.44C650.89 94.01 650.98 97.96 653.44 100.43C656 102.99 660.14 102.99 662.7 100.43C662.83 100.3 662.94 100.17 663.06 100.03C663.15 100.13 663.23 100.23 663.33 100.33C665.89 102.89 670.03 102.89 672.59 100.33C675.15 97.77 675.14 93.96 672.89 91.39C675.46 93.74 679.45 93.67 681.94 91.19C684.41 88.72 684.49 84.78 682.2 82.21C684.77 84.5 688.72 84.42 691.18 81.95C693.64 79.48 693.73 75.54 691.44 72.96C694.01 75.25 697.96 75.17 700.42 72.7C702.89 70.23 702.97 66.29 700.68 63.72C703.25 66.01 707.2 65.93 709.66 63.46C712.22 60.9 712.22 56.76 709.66 54.2L709.67 54.19ZM699.9 62.89C699.98 62.99 700.06 63.08 700.14 63.18C700.04 63.1 699.95 63.01 699.85 62.94L690.65 72.14C690.73 72.24 690.81 72.33 690.89 72.43C690.79 72.35 690.7 72.26 690.6 72.19L681.4 81.39C681.48 81.49 681.56 81.59 681.64 81.68C681.54 81.6 681.45 81.51 681.35 81.44L672.15 90.64C672.21 90.72 672.28 90.81 672.35 90.89C672.27 90.82 672.19 90.75 672.11 90.68L663.04 99.75L653.98 90.69C653.88 90.77 653.79 90.85 653.69 90.93C653.77 90.83 653.86 90.74 653.93 90.64L644.73 81.44C644.63 81.52 644.53 81.6 644.44 81.68C644.52 81.58 644.61 81.49 644.68 81.39L635.48 72.19C635.38 72.27 635.29 72.35 635.19 72.43C635.27 72.33 635.36 72.24 635.43 72.14L626.23 62.94C626.15 63 626.06 63.07 625.98 63.14C626.05 63.06 626.12 62.98 626.19 62.9L617.12 53.83L626.18 44.77C626.12 44.69 626.05 44.6 625.98 44.52C626.06 44.59 626.14 44.66 626.22 44.73L635.44 35.51C635.39 35.45 635.34 35.39 635.29 35.33C635.35 35.38 635.41 35.43 635.47 35.48L644.69 26.26C644.64 26.2 644.59 26.14 644.54 26.08C644.6 26.13 644.66 26.18 644.72 26.23L653.94 17.01C653.89 16.95 653.84 16.89 653.79 16.83C653.85 16.88 653.91 16.93 653.97 16.98L663.04 7.91L672.1 16.97C672.18 16.91 672.27 16.84 672.35 16.77C672.28 16.85 672.21 16.93 672.14 17.01L681.36 26.23C681.42 26.18 681.48 26.13 681.54 26.08C681.49 26.14 681.44 26.2 681.39 26.26L690.61 35.48C690.67 35.43 690.73 35.38 690.79 35.33C690.74 35.39 690.69 35.45 690.64 35.51L699.86 44.73C699.92 44.68 699.98 44.63 700.04 44.58C699.99 44.64 699.94 44.7 699.89 44.76L708.96 53.83L699.9 62.89Z" fill="#F4D916"/>
<defs>
<clipPath id="clip0_1_194">
<rect width="100" height="100" fill="white" transform="translate(492 4)"/>
</clipPath>
</defs>
</svg>
